<?xml version="1.0" encoding="UTF-8"?>
<svg width="12.2000016px" height="10.965px" viewBox="0 0 12.2000016 10.965" version="1.1" xmlns="http://www.w3.org/2000/svg" xmlns:xlink="http://www.w3.org/1999/xlink">
    <title>编组</title>
    <g id="页面-1" stroke="none" stroke-width="1" fill="none" fill-rule="evenodd">
        <g id="按钮图标" transform="translate(-43.9, -150.9)">
            <g id="编组" transform="translate(44, 150)">
                <path d="M10.8616681,11.765 L1.15915035,11.765 C0.515177934,11.765 8.8817842e-16,11.2498255 8.8817842e-16,10.6058574 L8.8817842e-16,7.90119142 C8.8817842e-16,7.7294666 0.150260235,7.57920738 0.321986209,7.57920738 C0.493712183,7.57920738 0.643972418,7.7294666 0.643972418,7.90119142 L0.643972418,10.5843918 C0.643972418,10.8634447 0.880095646,11.0995663 1.15915035,11.0995663 L10.8402024,11.0995663 C11.1192571,11.0995663 11.3553803,10.8634447 11.3553803,10.5843918 L11.3553803,7.90119142 C11.3553803,7.7294666 11.5056405,7.57920738 11.6773665,7.57920738 C11.8490925,7.57920738 11.9993527,7.7294666 11.9993527,7.90119142 L11.9993527,10.5843918 C12.0208185,11.2283599 11.5056405,11.765 10.8616681,11.765 Z" id="路径" stroke="#666666" stroke-width="0.2" fill="currentColor" fill-rule="nonzero"></path>
                <path d="M6.01040924,8.54515952 C5.83868327,8.54515952 5.68842303,8.39490029 5.68842303,8.22317547 L5.68842303,1.35418245 C5.68842303,1.18245763 5.83868327,1.0321984 6.01040924,1.0321984 C6.18213521,1.0321984 6.33239545,1.18245763 6.33239545,1.35418245 L6.33239545,8.22317547 C6.33239545,8.39490029 6.18213521,8.54515952 6.01040924,8.54515952 Z" id="路径" stroke="#666666" stroke-width="0.2" fill="currentColor" fill-rule="nonzero"></path>
                <path d="M8.97268236,4.59548854 C8.88681937,4.59548854 8.80095639,4.57402293 8.73655915,4.50962612 L6.01040924,1.78349451 L3.28425933,4.50962612 C3.15546485,4.63841974 2.96227312,4.63841974 2.83347864,4.50962612 C2.70468416,4.3808325 2.70468416,4.18764208 2.83347864,4.05884846 L5.77428602,1.09659521 C5.90308051,0.967801595 6.09627223,0.967801595 6.22506672,1.09659521 L9.18733984,4.05884846 C9.31613432,4.18764208 9.31613432,4.3808325 9.18733984,4.50962612 C9.1229426,4.57402293 9.05854536,4.59548854 8.97268236,4.59548854 Z" id="路径" stroke="#666666" stroke-width="0.2" fill="currentColor" fill-rule="nonzero"></path>
                <rect id="矩形备份" x="0" y="0" width="12" height="12"></rect>
            </g>
        </g>
    </g>
</svg>